<svg id="Layer_1" data-name="Layer 1" xmlns="http://www.w3.org/2000/svg" viewBox="0 0 60 30"><defs><style>.cls-1,.cls-2{fill:#fff;}.cls-1{fill-rule:evenodd;}</style></defs><path class="cls-1" d="M42.62,13.66A6.37,6.37,0,0,0,40,11.77a11.56,11.56,0,0,0-1.78-.51c-3.39-.72-1.42-3.88.53-2.68l.35.26a28.63,28.63,0,0,0,3.37.05A3.41,3.41,0,0,0,41.15,6.8c-1.6-1.45-5.4-1.76-7.24.78a4.37,4.37,0,0,0-.49,3.72,4.12,4.12,0,0,0,2,2,3.44,3.44,0,0,0,.38.22c1,.46,2.68,1,3.27,1.3,2.5,1.43-1.17,4.83-3.15,1.07H32.67V.7H29.58V6.21H26.76c0,2.19.11,4.69,0,6.85-.24,4.63-6.68,4.86-6.65.07,0-2.31,0-4.62,0-6.92H17l-.07,5.37A6.56,6.56,0,0,0,15.7,8.67,7.55,7.55,0,0,0,5.07,6.82c-.29.22-.5.4-.79.63A6.89,6.89,0,0,0,2.92,8.84a6.3,6.3,0,0,0-.55.86,7.69,7.69,0,0,0-.73,2.09,22.18,22.18,0,0,0-.14,2.36V25.22H4.66V18.9c2.27,1.21,4.78,2.27,7.79,1a7.62,7.62,0,0,0,3.83-3.63,5.86,5.86,0,0,0,.6-1.95H17c0,3.22,2.47,5,5.44,5.31a7.84,7.84,0,0,0,5.45-1.15,4.38,4.38,0,0,0,1.69-2.19l0,0a.08.08,0,0,1,0,0v3.63h3.09V16l.16.44a3.23,3.23,0,0,0,.14.47,5.64,5.64,0,0,0,1.36,2.26,4.87,4.87,0,0,0,3.51,1.4,5.26,5.26,0,0,0,3.7-1.14,5,5,0,0,0,1.16-1.27,4.25,4.25,0,0,0,.65-1.83l.57.92a9.61,9.61,0,0,0,.66.88,7.62,7.62,0,0,0,1.68,1.34c2.78,1.65,7.07,1.35,9.3-.73a7.43,7.43,0,0,0,1.09-1.14c.12-.16.21-.29.33-.47a6.22,6.22,0,0,0,.89-2.21H54.44c-.13.2-.22.39-.36.58l-.22.25a4.71,4.71,0,0,1-7.31-.33,3.44,3.44,0,0,1-.35-.58,8.44,8.44,0,0,1-.43-1.53H58a9,9,0,0,0-.68-3.15A7.05,7.05,0,0,0,52,5.81a8.4,8.4,0,0,0-4.88.62,7.27,7.27,0,0,0-4.45,7.23ZM6.14,12.52l-3.6.17,3.86.24.88-2.56,1.81,7.06,1.68-4.3,5.38-.37-5.61-.07L9.19,15.85,7.38,8.93,6.14,12.52Zm40.64-2H53.9c-1.64-2.46-5.7-2.54-7.12,0Z"/><path class="cls-2" d="M47.56,27.87h1.16V29H47.56Z"/><path class="cls-2" d="M50.54,27.61c.05.56.47.76,1,.76s1-.08,1-.57-.72-.57-1.42-.73-1.4-.4-1.4-1.28,1-1.25,1.82-1.25,1.7.37,1.82,1.34h-1c-.09-.45-.47-.58-.89-.58s-.79.07-.79.45.71.53,1.42.69,1.4.42,1.4,1.27c0,1-1,1.42-1.94,1.42-1.1,0-1.91-.49-1.93-1.52Z"/><path class="cls-2" d="M54.18,24.66h.91v.64l0,0a1.55,1.55,0,0,1,1.35-.78A1.38,1.38,0,0,1,58,26v3H57V26.28c0-.69-.28-1-.85-1a1.05,1.05,0,0,0-1,1.14V29h-1Z"/></svg>