<svg id="Layer_1" data-name="Layer 1" xmlns="http://www.w3.org/2000/svg" viewBox="0 0 60 30"><defs><style>.cls-1,.cls-2{fill:#fff;}.cls-1{fill-rule:evenodd;}</style></defs><path class="cls-1" d="M42.62,12.92A6.27,6.27,0,0,0,40,11a9.69,9.69,0,0,0-1.78-.51c-3.39-.72-1.42-3.89.53-2.68.09,0,.31.23.35.25a28.54,28.54,0,0,0,3.37.06,3.4,3.4,0,0,0-1.33-2.1c-1.6-1.44-5.4-1.75-7.24.78a4.4,4.4,0,0,0-.49,3.73,4.14,4.14,0,0,0,2,2,3.44,3.44,0,0,0,.38.22c1,.46,2.68,1,3.27,1.3,2.5,1.43-1.17,4.83-3.15,1.07H32.67V0H29.58V5.46H26.76c0,2.2.11,4.69,0,6.85-.24,4.63-6.68,4.87-6.65.07,0-2.31,0-4.61,0-6.92H17l-.07,5.37A6.56,6.56,0,0,0,15.7,7.92,7.57,7.57,0,0,0,5.07,6.07c-.29.22-.5.4-.79.63A7.45,7.45,0,0,0,2.92,8.09,7,7,0,0,0,2.37,9,7.69,7.69,0,0,0,1.64,11,22.18,22.18,0,0,0,1.5,13.4V24.47H4.66V18.16c2.27,1.2,4.78,2.27,7.79.94a7.58,7.58,0,0,0,3.83-3.63,5.86,5.86,0,0,0,.6-2H17c0,3.22,2.47,5,5.44,5.31a7.84,7.84,0,0,0,5.45-1.14,4.4,4.4,0,0,0,1.69-2.2l0-.05,0,0V19h3.09V15.2l.16.45a3.5,3.5,0,0,0,.14.46,5.68,5.68,0,0,0,1.36,2.27,4.9,4.9,0,0,0,3.51,1.39,5.26,5.26,0,0,0,3.7-1.14,4.87,4.87,0,0,0,1.16-1.27,4.21,4.21,0,0,0,.65-1.82l.57.91a9.61,9.61,0,0,0,.66.88,7.34,7.34,0,0,0,1.68,1.34c2.78,1.65,7.07,1.36,9.3-.73a7.43,7.43,0,0,0,1.09-1.14c.12-.16.21-.29.33-.47a6.25,6.25,0,0,0,.89-2.2H54.44c-.13.19-.22.38-.36.57s-.13.14-.22.25a4.71,4.71,0,0,1-7.31-.33A3.08,3.08,0,0,1,46.2,14a8.44,8.44,0,0,1-.43-1.53H58a9,9,0,0,0-.68-3.15A7.05,7.05,0,0,0,52,5.06a8.4,8.4,0,0,0-4.88.62,7.44,7.44,0,0,0-3.9,3.9,7.35,7.35,0,0,0-.55,3.34ZM6.14,11.77l-3.6.17,3.86.24.88-2.56,1.81,7.06,1.68-4.3L16.15,12l-5.61-.07L9.19,15.1,7.38,8.18,6.14,11.77Zm40.64-2H53.9c-1.64-2.46-5.7-2.54-7.12,0Z"/><path class="cls-2" d="M27.56,27.13h1.17v1.14H27.56Z"/><path class="cls-2" d="M32.76,25.37a.91.91,0,0,0-1-.81c-.5,0-1.2.26-1.2,1.58,0,.73.32,1.49,1.16,1.49a1,1,0,0,0,1-1h1a1.86,1.86,0,0,1-2,1.75,2.05,2.05,0,0,1-2.12-2.25,2.1,2.1,0,0,1,2.15-2.34,1.75,1.75,0,0,1,2,1.57Z"/><path class="cls-2" d="M34.31,26.09a2.2,2.2,0,1,1,4.39,0,2.2,2.2,0,1,1-4.39,0Zm3.43,0c0-.75-.38-1.53-1.24-1.53s-1.23.78-1.23,1.53.38,1.54,1.23,1.54S37.74,26.85,37.74,26.09Z"/><path class="cls-2" d="M39.5,23.92h.91v.6h0a1.46,1.46,0,0,1,1.34-.72,1.24,1.24,0,0,1,1.22.72,1.58,1.58,0,0,1,1.37-.72,1.27,1.27,0,0,1,1.45,1.46v3h-1V25.73c0-.69,0-1.17-.79-1.17s-.93.43-.93,1.16v2.55h-1v-2.8c0-.59-.18-.91-.76-.91a1,1,0,0,0-1,1.13v2.58h-1Z"/><path class="cls-2" d="M46.91,27.13h1.17v1.14H46.91Z"/><path class="cls-2" d="M53.21,28.05c0,1.3-.77,1.95-2.14,1.95-.88,0-1.87-.34-2-1.36h1c.12.55.56.64,1,.64a1,1,0,0,0,1.13-1.11v-.66h0a1.49,1.49,0,0,1-1.31.76c-1.38,0-2-1-2-2.29a2,2,0,0,1,2-2.18,1.38,1.38,0,0,1,1.29.71h0v-.59h1Zm-1-2.05c0-.75-.34-1.44-1.18-1.44s-1.14.79-1.14,1.51.34,1.44,1.14,1.44S52.25,26.74,52.25,26Z"/><path class="cls-2" d="M54.17,22.26h1v2.23h0a1.53,1.53,0,0,1,1.31-.69A1.37,1.37,0,0,1,58,25.28v3H57V25.53c0-.68-.29-1-.85-1a1.05,1.05,0,0,0-1,1.14v2.57h-1Z"/></svg>