<svg id="Layer_1" data-name="Layer 1" xmlns="http://www.w3.org/2000/svg" viewBox="0 0 60 30"><defs><style>.cls-1,.cls-2{fill:#fff;}.cls-1{fill-rule:evenodd;}</style></defs><path class="cls-1" d="M42.62,13.7A6.37,6.37,0,0,0,40,11.81a11.56,11.56,0,0,0-1.78-.51c-3.39-.72-1.42-3.88.53-2.68l.35.26a28.63,28.63,0,0,0,3.37,0,3.41,3.41,0,0,0-1.33-2.09c-1.6-1.45-5.4-1.76-7.24.78a4.37,4.37,0,0,0-.49,3.72,4.12,4.12,0,0,0,2,2,3.44,3.44,0,0,0,.38.22c1,.46,2.68,1,3.27,1.3,2.5,1.43-1.17,4.83-3.15,1.07H32.67V.74H29.58V6.25H26.76c0,2.19.11,4.69,0,6.85-.24,4.63-6.68,4.86-6.65.07,0-2.31,0-4.62,0-6.92H17l-.07,5.37A6.56,6.56,0,0,0,15.7,8.71,7.55,7.55,0,0,0,5.07,6.86c-.29.22-.5.4-.79.63A6.89,6.89,0,0,0,2.92,8.88a6.3,6.3,0,0,0-.55.86,7.69,7.69,0,0,0-.73,2.09,22.18,22.18,0,0,0-.14,2.36V25.26H4.66V18.94c2.27,1.21,4.78,2.27,7.79.95a7.62,7.62,0,0,0,3.83-3.63,5.86,5.86,0,0,0,.6-2H17c0,3.22,2.47,5,5.44,5.31a7.84,7.84,0,0,0,5.45-1.15,4.38,4.38,0,0,0,1.69-2.19l0-.05a.08.08,0,0,1,0,0v3.63h3.09V16l.16.44a3.23,3.23,0,0,0,.14.47,5.64,5.64,0,0,0,1.36,2.26,4.87,4.87,0,0,0,3.51,1.4,5.26,5.26,0,0,0,3.7-1.14,5,5,0,0,0,1.16-1.27,4.25,4.25,0,0,0,.65-1.83l.57.92a9.61,9.61,0,0,0,.66.88,7.62,7.62,0,0,0,1.68,1.34c2.78,1.65,7.07,1.35,9.3-.73a7.43,7.43,0,0,0,1.09-1.14c.12-.16.21-.29.33-.47a6.22,6.22,0,0,0,.89-2.21H54.44c-.13.2-.22.39-.36.58l-.22.25a4.71,4.71,0,0,1-7.31-.33,3.08,3.08,0,0,1-.35-.58,8.44,8.44,0,0,1-.43-1.53H58a9,9,0,0,0-.68-3.15A7.05,7.05,0,0,0,52,5.85a8.4,8.4,0,0,0-4.88.62,7.27,7.27,0,0,0-4.45,7.23ZM6.14,12.56l-3.6.17L6.4,13l.88-2.56,1.81,7.06,1.68-4.3,5.38-.37-5.61-.07L9.19,15.89,7.38,9,6.14,12.56Zm40.64-2H53.9c-1.64-2.46-5.7-2.54-7.12,0Z"/><path class="cls-2" d="M22.21,23h.95v6h-.95Z"/><path class="cls-2" d="M24.23,23h1v.9h-1Zm0,1.65h1V29h-1Z"/><path class="cls-2" d="M25.8,24.68h1L27.94,28h0L29,24.68h1L28.45,29H27.37Z"/><path class="cls-2" d="M31.33,27.1a1.14,1.14,0,0,0,1.16,1.28,1,1,0,0,0,1.06-.72h.9a1.9,1.9,0,0,1-2,1.48,2.06,2.06,0,0,1-2.12-2.29,2.1,2.1,0,1,1,4.14.25Zm2.23-.63a1.14,1.14,0,0,0-1.09-1.15,1.12,1.12,0,0,0-1.14,1.15Z"/><path class="cls-2" d="M35.32,27.89h1.16V29H35.32Z"/><path class="cls-2" d="M40.5,26.13a.91.91,0,0,0-1-.81c-.49,0-1.19.26-1.19,1.58,0,.72.32,1.48,1.15,1.48a1,1,0,0,0,1-1h1a1.88,1.88,0,0,1-2,1.75,2,2,0,0,1-2.11-2.24,2.1,2.1,0,0,1,2.14-2.34,1.76,1.76,0,0,1,2,1.57Z"/><path class="cls-2" d="M42,26.85a2.19,2.19,0,1,1,4.37,0,2.19,2.19,0,1,1-4.37,0Zm3.42,0c0-.75-.38-1.53-1.23-1.53S43,26.1,43,26.85s.38,1.53,1.24,1.53S45.46,27.6,45.46,26.85Z"/><path class="cls-2" d="M47.29,27.89h1.16V29H47.29Z"/><path class="cls-2" d="M49.57,23h1v3.4l1.73-1.75h1.18l-1.66,1.6L53.59,29H52.42l-1.33-2.11-.57.56V29h-1Z"/><path class="cls-2" d="M54.79,27.1A1.15,1.15,0,0,0,56,28.38,1,1,0,0,0,57,27.66h.9a1.9,1.9,0,0,1-2,1.48,2.06,2.06,0,0,1-2.12-2.29A2.1,2.1,0,1,1,58,27.1ZM57,26.47a1.12,1.12,0,1,0-2.23,0Z"/></svg>