<svg id="Layer_1" data-name="Layer 1" xmlns="http://www.w3.org/2000/svg" viewBox="0 0 110 55"><defs><style>.cls-1,.cls-2{fill:#fff;}.cls-1{fill-rule:evenodd;}</style></defs><path class="cls-1" d="M78.51,25.22c-.77-.56-1.32-2.07-4.77-3.46a19.43,19.43,0,0,0-3.24-.93c-6.2-1.31-2.6-7.09,1-4.89.16.1.56.42.64.46a53.89,53.89,0,0,0,6.16.1c0-1.49-1.41-2.91-2.43-3.83C72.91,10,66,9.46,62.6,14.1a8,8,0,0,0-.89,6.81,7.56,7.56,0,0,0,3.61,3.62,4.84,4.84,0,0,0,.71.4c1.81.84,4.89,1.76,6,2.38,4.56,2.61-2.14,8.82-5.77,2H60.34V1.52H54.69V11.59H49.54c0,4,.2,8.58,0,12.52-.44,8.47-12.21,8.89-12.16.13,0-4.21,0-8.43,0-12.65H31.61l-.12,9.82c0-1.62-1.28-4-2.16-5.33A13.82,13.82,0,0,0,9.9,12.71L8.46,13.85A13.36,13.36,0,0,0,6,16.4,10.7,10.7,0,0,0,5,18,13.74,13.74,0,0,0,3.63,21.8a38,38,0,0,0-.26,4.31V46.34H9.15V34.8c4.15,2.19,8.73,4.14,14.24,1.72a14,14,0,0,0,7-6.63,10.83,10.83,0,0,0,1.1-3.57h.12c0,5.89,4.51,9.11,10,9.7a14.29,14.29,0,0,0,9.94-2.08c2.08-1.38,2.36-2.61,3.1-4l0-.08a.59.59,0,0,0,0-.08v6.63h5.65v-7l.29.82a7.61,7.61,0,0,0,.25.85,10.28,10.28,0,0,0,2.5,4.13,8.88,8.88,0,0,0,6.41,2.55c3.31,0,4.87-.65,6.76-2.08a9,9,0,0,0,2.11-2.31A7.85,7.85,0,0,0,79.86,30l1,1.67a17.45,17.45,0,0,0,1.22,1.61,13.46,13.46,0,0,0,3.07,2.45c5.07,3,12.91,2.47,17-1.34a13.14,13.14,0,0,0,2-2.08c.23-.3.4-.53.61-.86a11.46,11.46,0,0,0,1.62-4h-6.26c-.24.35-.39.7-.66,1.05s-.24.26-.41.46a8.62,8.62,0,0,1-13.35-.6,6.06,6.06,0,0,1-.64-1.07,15.28,15.28,0,0,1-.78-2.79h22.35a16.18,16.18,0,0,0-1.25-5.75,12.86,12.86,0,0,0-9.82-7.86A15.22,15.22,0,0,0,86.65,12c-3.18,1.6-5.74,3.64-7.12,7.12a13.4,13.4,0,0,0-1,6.1ZM11.85,23.13l-6.57.31,7.06.43,1.59-4.67,3.32,12.89,3.07-7.85,9.82-.68-10.25-.12-2.46,5.77L14.12,16.56l-2.27,6.57Zm74.27-3.68h13c-3-4.49-10.42-4.64-13,0Z"/><path class="cls-2" d="M92,51.17h2.15v2.09H92Z"/><path class="cls-2" d="M101.6,47.92a1.7,1.7,0,0,0-1.83-1.5c-.91,0-2.2.48-2.2,2.92,0,1.33.59,2.74,2.12,2.74a1.9,1.9,0,0,0,1.91-1.83h1.77a3.46,3.46,0,0,1-3.68,3.23c-2.51,0-3.89-1.79-3.89-4.14s1.32-4.32,4-4.32c1.87,0,3.45.94,3.62,2.9Z"/><path class="cls-2" d="M104.86,42.19h1.77v1.67h-1.77Zm0,3.05h1.77v8h-1.77Z"/></svg>