<svg id="Layer_1" data-name="Layer 1" xmlns="http://www.w3.org/2000/svg" viewBox="0 0 110 55"><defs><style>.cls-1,.cls-2{fill:#fff;}.cls-1{fill-rule:evenodd;}</style></defs><path class="cls-1" d="M79.92,25.11c-.82-.59-1.4-2.19-5.06-3.66a20.76,20.76,0,0,0-3.43-1c-6.57-1.39-2.76-7.52,1-5.19.17.11.59.45.68.5.5.24,5.73.1,6.53.1,0-1.58-1.49-3.08-2.57-4.06C74,9,66.63,8.42,63.06,13.33a8.45,8.45,0,0,0-1,7.21,8,8,0,0,0,3.83,3.85,6.66,6.66,0,0,0,.75.42c1.91.89,5.19,1.86,6.33,2.52,4.83,2.77-2.27,9.35-6.11,2.08H60.66V0h-6V10.67H49.21c0,4.26.22,9.09,0,13.27-.46,9-12.94,9.42-12.88.13,0-4.46,0-8.93,0-13.4H30.21l-.13,10.41c0-1.72-1.35-4.24-2.29-5.65A14.65,14.65,0,0,0,7.2,11.86c-.56.42-1,.76-1.52,1.21A14.06,14.06,0,0,0,3,15.76a13,13,0,0,0-1,1.67A14.14,14.14,0,0,0,.56,21.48a39.82,39.82,0,0,0-.27,4.58V47.49H6.4V35.26c4.41,2.33,9.26,4.4,15.1,1.83a14.76,14.76,0,0,0,7.41-7,11.24,11.24,0,0,0,1.17-3.78h.13c0,6.24,4.78,9.65,10.54,10.28a15.1,15.1,0,0,0,10.54-2.21c2.21-1.45,2.5-2.76,3.29-4.26l.05-.08,0-.08v7h6V29.54l.31.86a8.7,8.7,0,0,0,.26.91,11.06,11.06,0,0,0,2.65,4.38,9.48,9.48,0,0,0,6.8,2.7c3.5,0,5.16-.69,7.16-2.21a9.34,9.34,0,0,0,2.23-2.45,8.3,8.3,0,0,0,1.28-3.54L82.44,32a18.07,18.07,0,0,0,1.29,1.7A14.29,14.29,0,0,0,87,36.26c5.37,3.2,13.69,2.62,18-1.42a14.28,14.28,0,0,0,2.1-2.2c.24-.32.41-.57.64-.92a11.75,11.75,0,0,0,1.71-4.27h-6.63c-.25.38-.42.75-.7,1.12s-.25.27-.43.49c-3.82,4.54-11.07,3.77-14.15-.64a7.2,7.2,0,0,1-.69-1.14,17.31,17.31,0,0,1-.82-3h23.68a17.35,17.35,0,0,0-1.31-6.1A13.69,13.69,0,0,0,98,9.9a16.16,16.16,0,0,0-9.44,1.2C85.17,12.8,82.46,15,81,18.64a14.25,14.25,0,0,0-1.08,6.47ZM9.26,22.9l-7,.33,7.48.45,1.7-4.94L15,32.4l3.25-8.33,10.41-.71-10.86-.13-2.61,6.11-3.51-13.4-2.41,7ZM88,19h13.79c-3.17-4.76-11-4.92-13.79,0Z"/><path class="cls-2" d="M88.5,49.38H91v2.47H88.5Z"/><path class="cls-2" d="M100.33,51.85H98.16V50.7h0a3,3,0,0,1-2.53,1.38c-2.43,0-3-1.36-3-3.42v-5.1h2.28v4.68c0,1.37.4,2,1.46,2,1.24,0,1.77-.69,1.77-2.37V43.56h2.28Z"/><path class="cls-2" d="M109.71,51.33c0,1.36-.48,3.67-4.3,3.67-1.63,0-3.54-.77-3.66-2.66H104a1.54,1.54,0,0,0,1.7,1.14c1.27,0,1.84-.87,1.83-2.06V50.33h0A2.81,2.81,0,0,1,105,51.61c-2.49,0-3.55-1.89-3.55-4.17s1.24-4.11,3.57-4.11a2.58,2.58,0,0,1,2.47,1.34h0V43.56h2.16Zm-2.16-3.73c0-1.35-.47-2.55-1.94-2.55-1.29,0-1.85,1.12-1.85,2.36s.45,2.49,1.85,2.49A2,2,0,0,0,107.55,47.6Z"/></svg>